<svg xmlns="http://www.w3.org/2000/svg" xmlns:xlink="http://www.w3.org/1999/xlink" width="100" height="100" viewBox="-10 -10 160 160">

  <!-- Left stem -->
  <path
    d="M45 110
       Q38 80 40 55
       Q42 35 35 15"
    fill="none"
    stroke="black"
    stroke-width="2"
    stroke-linecap="round"
  />

  <!-- Right stem -->
  <path
    d="M50 110
       Q55 75 60 50
       Q65 30 75 20"
    fill="none"
    stroke="black"
    stroke-width="2"
    stroke-linecap="round"
  />

  <!-- LEFT stem leaves (2) -->
  <path
    d="M36 70
       Q24 72 20 62
       Q28 60 36 70 Z"
    fill="none"
    stroke="black"
    stroke-width="2"
    stroke-linejoin="round"
  />

  <!-- RIGHT stem leaf (1) -->
  <path
    d="M62 55
       Q76 56 79 45
       Q70 43 62 55 Z"
    fill="none"
    stroke="black"
    stroke-width="2"
    stroke-linejoin="round"
  />

  <!-- Left star bloom (moved UP, filled pink) -->
  <polygon
    points="
      35,2
      40,14
      54,15
      43,23
      48,36
      35,28
      22,36
      27,23
      16,15
      30,14
    "
    fill="#F93E72"
    stroke="black"
    stroke-width="2"
    stroke-linejoin="round"
  />

  <!-- Right star bloom (moved UP, filled pink) -->
  <polygon
    points="
      75,9
      80,21
      94,22
      83,30
      88,43
      75,35
      62,43
      67,30
      56,22
      70,21
    "
    fill="#F93E72"
    stroke="black"
    stroke-width="2"
    stroke-linejoin="round"
  />

</svg>